<?xml version="1.0" encoding="UTF-8" standalone="no"?>
<svg
   viewBox="0 0 512 512"
   version="1.1"
   id="svg4"
   sodipodi:docname="leaf-solid.svg"
   inkscape:version="1.2.1 (9c6d41e410, 2022-07-14)"
   xmlns:inkscape="http://www.inkscape.org/namespaces/inkscape"
   xmlns:sodipodi="http://sodipodi.sourceforge.net/DTD/sodipodi-0.dtd"
   xmlns="http://www.w3.org/2000/svg"
   xmlns:svg="http://www.w3.org/2000/svg">
  <defs
     id="defs8" />
  <sodipodi:namedview
     id="namedview6"
     pagecolor="#505050"
     bordercolor="#eeeeee"
     borderopacity="1"
     inkscape:showpageshadow="0"
     inkscape:pageopacity="0"
     inkscape:pagecheckerboard="0"
     inkscape:deskcolor="#505050"
     showgrid="false"
     inkscape:zoom="1.0449219"
     inkscape:cx="200.49346"
     inkscape:cy="255.5215"
     inkscape:window-width="1366"
     inkscape:window-height="715"
     inkscape:window-x="-8"
     inkscape:window-y="-8"
     inkscape:window-maximized="1"
     inkscape:current-layer="svg4" />
  <!--! Font Awesome Pro 6.4.2 by @fontawesome - https://fontawesome.com License - https://fontawesome.com/license (Commercial License) Copyright 2023 Fonticons, Inc. -->
  <path
     d="M 272,96 C 193.4,96 126.9,147.5 104.3,218.5 137.9,201.5 175.8,192 216,192 h 88 c 8.8,0 16,7.2 16,16 0,8.8 -7.2,16 -16,16 h -16 -72 c 0,0 0,0 0,0 -16.6,0 -32.7,1.9 -48.2,5.4 -25.9,5.9 -50,16.4 -71.4,30.7 0,0 0,0 0,0 C 38.3,298.8 0,364.9 0,440 v 16 c 0,13.3 10.7,24 24,24 13.3,0 24,-10.7 24,-24 V 440 C 48,391.3 68.7,347.5 101.8,316.8 121.6,392.3 190.3,448 272,448 h 1 C 405.1,447.3 512,317.1 512,156.6 512,114 504.5,73.5 490.9,37 488.3,30.1 478.2,30.4 474.7,36.9 455.9,72.1 418.7,96 376,96 Z"
     id="path2"
     style="fill:#35842a;fill-opacity:1"
     inkscape:highlight-color="#45713e" />
</svg>
